<svg xmlns="http://www.w3.org/2000/svg" width="360" height="460" viewBox="0 0 360 460">
<defs><linearGradient id="g" x1="0" y1="0" x2="1" y2="1"><stop stop-color="#10171a"/><stop offset="1" stop-color="#090c0f"/></linearGradient><filter id="noise"><feTurbulence baseFrequency=".75" numOctaves="2" stitchTiles="stitch"/><feColorMatrix values="1 0 0 0 0 0 1 0 0 0 0 0 1 0 0 0 0 0 .035 0"/></filter></defs>
<rect width="360" height="460" fill="url(#g)"/><rect width="360" height="460" filter="url(#noise)" opacity=".55"/>
<circle cx="285" cy="74" r="72" fill="none" stroke="#8b8fbd" opacity=".11"/><path d="M22 390 H338" stroke="#8b8fbd" opacity=".15"/>
<g transform="translate(58 55)">
  <path d="M53 365 C60 275 92 245 122 236 C154 245 191 277 198 365 Z" fill="#1b2228" stroke="#313d46"/>
  <path d="M93 229 L151 229 L159 274 L122 297 L84 274 Z" fill="#d1a080" opacity=".96"/>
  <ellipse cx="122" cy="137" rx="72" ry="92" fill="#d1a080"/>
  <path d="M66 80 C70 24 170 22 178 84 L172 172 L150 138 L95 139 L73 172 Z" fill="#151a1d"/>
  <path d="M82 114 Q98 105 110 113" stroke="#46392f" stroke-width="4" fill="none" stroke-linecap="round"/>
  <path d="M134 113 Q149 105 162 114" stroke="#46392f" stroke-width="4" fill="none" stroke-linecap="round"/>
  <ellipse cx="98" cy="128" rx="6" ry="4" fill="#16191c"><animate attributeName="ry" values="4;4;0.5;4" dur="5.8s" repeatCount="indefinite" begin="0.3s"/></ellipse>
  <ellipse cx="149" cy="128" rx="6" ry="4" fill="#16191c"><animate attributeName="ry" values="4;4;0.5;4" dur="5.8s" repeatCount="indefinite" begin="0.3s"/></ellipse>
  <path d="M122 132 L116 161 L128 161" stroke="#8c624e" stroke-width="3" fill="none"/>
  <path d="M99 185 Q122 196 148 184" stroke="#6e453e" stroke-width="3" fill="none" stroke-linecap="round"/>
  
  <path d="M73 215 Q122 246 171 215" stroke="#8a5d4d" opacity=".3" fill="none"/>
</g>
<rect x="20" y="20" width="320" height="420" fill="none" stroke="#33404a"/>
<path d="M20 70 H70 M290 70 H340 M20 390 H70 M290 390 H340" stroke="#8b8fbd" stroke-width="2" opacity=".65"/>
<text x="30" y="416" fill="#8b8fbd" font-family="monospace" font-size="12" letter-spacing="2">CASE//ZERO · DOSSIER</text>
<text x="30" y="436" fill="#7d8991" font-family="monospace" font-size="10">CHONG MEI LING</text>
</svg>